<svg height="798" width="720" xmlns="http://www.w3.org/2000/svg">
<rect height="798" fill="#555" width="720"></rect>
<text fill="#7f7" font-family="Courier New" font-size="12" xml:space="preserve">
<tspan x="10" y="26">12 megabytes installed</tspan>
<tspan x="10" y="42"></tspan>
<tspan x="10" y="58">node_modules</tspan>
<tspan x="10" y="74">└─┬ steam@1.4.0 </tspan>
<tspan x="10" y="90">  ├── adm-zip@0.4.7 </tspan>
<tspan x="10" y="106">  ├── buffer-crc32@0.2.13 </tspan>
<tspan x="10" y="122">  ├─┬ bytebuffer@5.0.1 </tspan>
<tspan x="10" y="138">  │ └── long@3.2.0 </tspan>
<tspan x="10" y="154">  ├── steam-crypto@0.0.1 </tspan>
<tspan x="10" y="170">  └─┬ steam-resources@1.0.0  (git+https://github.com/seishun/node-steam-resources.git#1403939a12\</tspan>
<tspan x="10" y="186">ba467a4b82c8ccbc279bbcdad43588)</tspan>
<tspan x="10" y="202">    ├─┬ bytebuffer@5.0.0 </tspan>
<tspan x="10" y="218">    │ └── long@3.0.1 </tspan>
<tspan x="10" y="234">    └─┬ protobufjs@4.1.2 </tspan>
<tspan x="10" y="250">      ├─┬ ascli@1.0.0 </tspan>
<tspan x="10" y="266">      │ ├── colour@0.7.1 </tspan>
<tspan x="10" y="282">      │ └── optjs@3.2.1-boom </tspan>
<tspan x="10" y="298">      ├─┬ bytebuffer@4.1.0 </tspan>
<tspan x="10" y="314">      │ ├── bufferview@1.0.1 </tspan>
<tspan x="10" y="330">      │ └── long@2.4.0 </tspan>
<tspan x="10" y="346">      ├─┬ glob@5.0.15 </tspan>
<tspan x="10" y="362">      │ ├─┬ inflight@1.0.4 </tspan>
<tspan x="10" y="378">      │ │ └── wrappy@1.0.1 </tspan>
<tspan x="10" y="394">      │ ├── inherits@2.0.1 </tspan>
<tspan x="10" y="410">      │ ├─┬ minimatch@3.0.0 </tspan>
<tspan x="10" y="426">      │ │ └─┬ brace-expansion@1.1.1 </tspan>
<tspan x="10" y="442">      │ │   ├── balanced-match@0.2.1 </tspan>
<tspan x="10" y="458">      │ │   └── concat-map@0.0.1 </tspan>
<tspan x="10" y="474">      │ ├─┬ once@1.3.2 </tspan>
<tspan x="10" y="490">      │ │ └── wrappy@1.0.1 </tspan>
<tspan x="10" y="506">      │ └── path-is-absolute@1.0.0 </tspan>
<tspan x="10" y="522">      └─┬ yargs@3.29.0 </tspan>
<tspan x="10" y="538">        ├── camelcase@1.2.1 </tspan>
<tspan x="10" y="554">        ├─┬ cliui@3.0.3 </tspan>
<tspan x="10" y="570">        │ ├─┬ string-width@1.0.1 </tspan>
<tspan x="10" y="586">        │ │ ├─┬ code-point-at@1.0.0 </tspan>
<tspan x="10" y="602">        │ │ │ └── number-is-nan@1.0.0 </tspan>
<tspan x="10" y="618">        │ │ └─┬ is-fullwidth-code-point@1.0.0 </tspan>
<tspan x="10" y="634">        │ │   └── number-is-nan@1.0.0 </tspan>
<tspan x="10" y="650">        │ ├─┬ strip-ansi@3.0.0 </tspan>
<tspan x="10" y="666">        │ │ └── ansi-regex@2.0.0 </tspan>
<tspan x="10" y="682">        │ └── wrap-ansi@1.0.0 </tspan>
<tspan x="10" y="698">        ├── decamelize@1.1.1 </tspan>
<tspan x="10" y="714">        ├─┬ os-locale@1.4.0 </tspan>
<tspan x="10" y="730">        │ └─┬ lcid@1.0.0 </tspan>
<tspan x="10" y="746">        │   └── invert-kv@1.0.0 </tspan>
<tspan x="10" y="762">        ├── window-size@0.1.2 </tspan>
<tspan x="10" y="778">        └── y18n@3.2.0</tspan>
</text>
</svg>
